<?xml version="1.0" encoding="UTF-8" standalone="no"?>
<svg
   viewBox="0 0 124.44 144.00"
   id="svg2"
   version="1.1"
   sodipodi:docname="climate-logo.svg"
   inkscape:version="1.2.2 (732a01da63, 2022-12-09)"
   inkscape:export-filename="logo.svg"
   inkscape:export-xdpi="153.38"
   inkscape:export-ydpi="153.38"
   xmlns:inkscape="http://www.inkscape.org/namespaces/inkscape"
   xmlns:sodipodi="http://sodipodi.sourceforge.net/DTD/sodipodi-0.dtd"
   xmlns="http://www.w3.org/2000/svg"
   xmlns:svg="http://www.w3.org/2000/svg"
   xmlns:rdf="http://www.w3.org/1999/02/22-rdf-syntax-ns#"
   xmlns:cc="http://creativecommons.org/ns#"
   xmlns:dc="http://purl.org/dc/elements/1.1/">
  <metadata
     id="metadata159">
    <rdf:RDF>
      <cc:Work
         rdf:about="">
        <dc:format>image/svg+xml</dc:format>
        <dc:type
           rdf:resource="http://purl.org/dc/dcmitype/StillImage" />
      </cc:Work>
    </rdf:RDF>
  </metadata>
  <sodipodi:namedview
     pagecolor="#ffffff"
     bordercolor="#666666"
     borderopacity="1"
     objecttolerance="10"
     gridtolerance="10"
     guidetolerance="10"
     inkscape:pageopacity="0"
     inkscape:pageshadow="2"
     inkscape:window-width="1920"
     inkscape:window-height="991"
     id="namedview157"
     showgrid="true"
     inkscape:zoom="4.29"
     inkscape:cx="124.12587"
     inkscape:cy="77.972028"
     inkscape:window-x="-9"
     inkscape:window-y="-9"
     inkscape:window-maximized="1"
     inkscape:current-layer="svg2"
     showguides="true"
     inkscape:showpageshadow="2"
     inkscape:pagecheckerboard="0"
     inkscape:deskcolor="#d1d1d1">
    <inkscape:grid
       type="xygrid"
       id="grid861"
       spacingx="0.16"
       spacingy="0.16"
       empspacing="4"
       units="pc" />
  </sodipodi:namedview>
  <defs
     id="defs4">
    <style
       type="text/css"
       id="style6">
    line, polyline, path, rect, circle {
      fill: none;
      stroke: #000000;
      stroke-linecap: round;
      stroke-linejoin: round;
      stroke-miterlimit: 10.00;
    }
  </style>
    <mask
       maskUnits="userSpaceOnUse"
       id="mask4581">
      <polyline
         transform="translate(93.114,32.081)"
         points="2.285 37.429 2.285 106.799 62.105 141.486 121.926 106.799 121.926 37.429 62.105 2.743 2.285 37.429"
         style="fill:#dedccf;fill-opacity:1;fill-rule:nonzero;stroke:#008a00;stroke-width:4;stroke-linecap:round;stroke-linejoin:round;stroke-miterlimit:10;stroke-opacity:0.99004977"
         clip-path="url(#cpMHwxMjQuNDQxfDE0My45OTd8MC4xNDMxMzc=)"
         id="polyline4583" />
    </mask>
    <clipPath
       clipPathUnits="userSpaceOnUse"
       id="clipPath5085">
      <polyline
         transform="translate(-62.732692,-31.469154)"
         points="2.285 37.429 2.285 106.799 62.105 141.486 121.926 106.799 121.926 37.429 62.105 2.743 2.285 37.429"
         style="fill:#d5d2ca;fill-opacity:1;fill-rule:nonzero;stroke:none;stroke-width:4;stroke-linecap:round;stroke-linejoin:round;stroke-miterlimit:10;stroke-opacity:0.99004977"
         clip-path="url(#cpMHwxMjQuNDQxfDE0My45OTd8MC4xNDMxMzc=)"
         id="polyline5087" />
    </clipPath>
  </defs>
  <rect
     width="100%"
     height="100%"
     style="fill:none;stroke:none;stroke-linecap:round;stroke-linejoin:round;stroke-miterlimit:10"
     id="rect8"
     x="-0.954"
     y="-1.3609837" />
  <rect
     x="-0.954"
     y="-1.2209691"
     width="124.44"
     height="143.71001"
     style="fill:none;stroke:none;stroke-width:1.07000005;stroke-linecap:round;stroke-linejoin:round;stroke-miterlimit:10"
     clip-path="url(#cpMHwxMjQuNDQxfDE0My44NTd8MC4xNDMxMzc=)"
     id="rect15" />
  <rect
     x="-1.094"
     y="-1.2209691"
     width="124.58"
     height="143.85001"
     style="fill:none;stroke:none;stroke-width:1.07000005;stroke-linecap:round;stroke-linejoin:round;stroke-miterlimit:10"
     clip-path="url(#cpMHwxMjQuNDQxfDE0My45OTd8MC4xNDMxMzc=)"
     id="rect27" />
  <polyline
     points="2.285 37.429 2.285 106.799 62.105 141.486 121.926 106.799 121.926 37.429 62.105 2.743 2.285 37.429"
     style="fill:#d5d2ca;fill-opacity:1;fill-rule:nonzero;stroke:none;stroke-width:4;stroke-linecap:round;stroke-linejoin:round;stroke-miterlimit:10;stroke-opacity:0.99004977"
     clip-path="url(#cpMHwxMjQuNDQxfDE0My45OTd8MC4xNDMxMzc=)"
     id="polyline29"
     transform="translate(-0.95399999,-1.3609688)" />
  <path
     id="polyline29-34-3-8"
     clip-path="url(#cpMHwxMjQuNDQxfDE0My45OTd8MC4xNDMxMzc=)"
     style="fill:#6aade4;fill-opacity:1;fill-rule:nonzero;stroke:none;stroke-width:4;stroke-linecap:round;stroke-linejoin:round;stroke-miterlimit:10;stroke-opacity:0.99005"
     d="M 71.679813,55.695 A 56.632385,56.632385 0 0 0 15.047,112.32782 a 56.632385,56.632385 0 0 0 0.140625,1.95117 l 46.917969,27.20703 59.820316,-34.6875 V 86.228203 A 56.632385,56.632385 0 0 0 71.679813,55.695 Z" />
  <g
     id="g5036"
     transform="translate(62.053692,31.719191)"
     style="stroke:#d0b972;stroke-opacity:0.98407647"
     clip-path="url(#clipPath5085)">
    <g
       id="path4967">
      <path
         style="color:#000000;fill:#d0b972;fill-opacity:0.984076;stroke:none;stroke-linecap:round;stroke-linejoin:round;stroke-miterlimit:10;stroke-opacity:1;-inkscape-stroke:none;paint-order:markers stroke fill"
         d="m -25,-7.0644531 c -8.860015,0 -16.064453,7.20443777 -16.064453,16.0644531 0,8.860015 7.204438,16.064453 16.064453,16.064453 8.860015,0 16.0644531,-7.204438 16.0644531,-16.064453 0,-8.86001533 -7.2044381,-16.0644531 -16.0644531,-16.0644531 z m 0,2.1289062 c 7.708511,0 13.935547,6.2270363 13.935547,13.9355469 0,7.708511 -6.227036,13.935547 -13.935547,13.935547 -7.708511,0 -13.935547,-6.227036 -13.935547,-13.935547 0,-7.7085106 6.227036,-13.9355469 13.935547,-13.9355469 z"
         id="path420" />
      <path
         style="color:#000000;fill:#d0b972;stroke:none;stroke-width:2.13068;stroke-linecap:round;stroke-linejoin:round;stroke-miterlimit:10;stroke-opacity:1;-inkscape-stroke:none;paint-order:markers stroke fill"
         d="M -10,9 A 15,15 0 0 1 -25,24 15,15 0 0 1 -40,9 15,15 0 0 1 -25,-6 15,15 0 0 1 -10,9 Z"
         id="path422" />
    </g>
    <path
       style="color:#000000;fill:#d0b972;fill-opacity:0.984076;stroke:none;stroke-linecap:round;stroke-linejoin:round;stroke-miterlimit:10;stroke-opacity:1;-inkscape-stroke:none;paint-order:markers stroke fill"
       d="m -25,-14 c -12.677473,0 -23,10.3225263 -23,23 0,12.677474 10.322527,23 23,23 12.677473,0 23,-10.322526 23,-23 0,-12.6774737 -10.322527,-23 -23,-23 z m 0,4.2324219 c 10.390332,0 18.7675781,8.3772446 18.7675781,18.7675781 0,10.390333 -8.3772461,18.767578 -18.7675781,18.767578 -10.390332,0 -18.767578,-8.377245 -18.767578,-18.767578 0,-10.3903335 8.377246,-18.7675781 18.767578,-18.7675781 z"
       id="path4969" />
    <path
       id="path657"
       style="color:#000000;fill:#d0b972;fill-opacity:0.984076;stroke:none;stroke-linecap:round;stroke-linejoin:round;stroke-miterlimit:10;stroke-opacity:1;-inkscape-stroke:none;paint-order:markers stroke fill"
       d="M -14.930645 -20.289503 L -19.922833 -17.394972 C -7.4883534 -15.025626 1.8857611 -4.1357789 1.8857611 8.999559 C 1.8857611 23.873145 -10.127371 35.886278 -25.000958 35.886278 C -39.874544 35.886278 -51.887676 23.873145 -51.887676 8.999559 C -51.887676 5.9455074 -51.356589 3.0241821 -50.422833 0.29057463 L -55.436504 3.1987778 C -55.794365 5.0803446 -56.000958 7.0152173 -56.000958 8.999559 C -56.000958 26.095994 -42.097393 39.999559 -25.000958 39.999559 C -7.9045229 39.999559 5.9990424 26.095994 5.9990424 8.999559 C 5.9990424 -4.5686715 -2.7703101 -16.097227 -14.930645 -20.289503 z " />
    <path
       id="path4969-3-3"
       style="color:#000000;fill:#d0b972;fill-opacity:0.984076;stroke:none;stroke-linecap:round;stroke-linejoin:round;stroke-miterlimit:10;stroke-opacity:1;-inkscape-stroke:none;paint-order:markers stroke fill"
       d="M -6.3681451 -25.254347 L -10.526348 -22.844191 C 1.5785411 -17.342429 9.9951361 -5.1817327 9.9951361 8.999559 C 9.9951361 28.351462 -5.6490572 43.995653 -25.000958 43.995653 C -43.036069 43.995653 -57.835912 30.403543 -59.768536 12.890184 L -59.768536 26.642137 C -53.320487 39.306213 -40.167641 47.999559 -25.000958 47.999559 C -3.4856043 47.999559 13.999042 30.514914 13.999042 8.999559 C 13.999042 -5.7699797 5.7584121 -18.635794 -6.3681451 -25.254347 z " />
    <path
       id="path4969-3-3-6"
       style="color:#000000;fill:#d0b972;fill-opacity:0.984076;stroke:none;stroke-linecap:round;stroke-linejoin:round;stroke-miterlimit:10;stroke-opacity:1;-inkscape-stroke:none;paint-order:markers stroke fill"
       d="M 8.1924018 -24.2563 L 0.05177675 -28.977003 L -2.3720514 -27.572707 C 9.8585036 -19.996983 17.997089 -6.463796 17.997089 8.999559 C 17.997089 32.770623 -1.2298959 51.997606 -25.000958 51.997606 C -39.304286 51.997606 -51.954381 45.029989 -59.768536 34.3062 L -59.768536 40.605028 C -51.167931 50.058901 -38.771256 55.999559 -25.000958 55.999559 C 0.93267445 55.999559 21.999042 34.933193 21.999042 8.999559 C 21.999042 -3.9836378 16.719631 -15.745472 8.1924018 -24.2563 z " />
  </g>
  <g
     id="g32580">
    <path
       d="M 70.376926,70.885078 H 61.40816 v -2.369796 h 2.861984 v -7.17319 H 61.40816 v -2.214847 q 0.628907,0 1.2487,-0.08203 0.619793,-0.08203 0.993491,-0.264323 0.437501,-0.21875 0.674481,-0.583334 0.246094,-0.373699 0.282552,-0.920575 h 2.97136 v 11.238301 h 2.798182 z"
       id="path8366"
       style="fill:#ffffff;fill-opacity:1;stroke:none;stroke-opacity:0.99005" />
    <path
       d="m 82.262363,70.885078 h -8.968766 v -2.369796 h 2.861984 v -7.17319 h -2.861984 v -2.214847 q 0.628907,0 1.2487,-0.08203 0.619793,-0.08203 0.993491,-0.264323 0.437501,-0.21875 0.674481,-0.583334 0.246094,-0.373699 0.282552,-0.920575 h 2.97136 v 11.238301 h 2.798182 z"
       id="path8363"
       style="fill:#ffffff;fill-opacity:1;stroke:none;stroke-opacity:0.99005" />
    <path
       d="m 47.034436,79.961397 q 0,1.759118 -0.282553,3.080735 -0.282552,1.321617 -0.902345,2.205733 -0.619793,0.884116 -1.613284,1.339846 -0.993491,0.446616 -2.433598,0.446616 -1.430992,0 -2.424484,-0.446616 -0.993491,-0.45573 -1.622399,-1.358075 -0.619792,-0.893231 -0.902345,-2.196619 -0.282553,-1.312502 -0.282553,-3.062505 0,-1.804691 0.273438,-3.080735 0.282553,-1.276044 0.92969,-2.196618 0.638022,-0.902346 1.640628,-1.339847 1.002606,-0.446615 2.388025,-0.446615 1.46745,0 2.442713,0.464845 0.984376,0.45573 1.613284,1.36719 0.619792,0.89323 0.89323,2.205733 0.282553,1.312502 0.282553,3.016932 z m -3.417975,0 q 0,-2.515629 -0.419271,-3.52735 -0.410157,-1.020835 -1.394534,-1.020835 -0.975262,0 -1.394534,1.020835 -0.419272,1.011721 -0.419272,3.54558 0,2.479171 0.419272,3.518235 0.419272,1.02995 1.394534,1.02995 0.975262,0 1.394534,-1.02995 0.419271,-1.039064 0.419271,-3.536465 z"
       id="path8342"
       style="fill:#ffffff;fill-opacity:1;stroke:none;stroke-opacity:0.99005" />
    <path
       d="m 58.491489,86.751774 h -8.968766 v -2.369796 h 2.861984 v -7.17319 H 49.522723 V 74.99394 q 0.628907,0 1.2487,-0.08203 0.619793,-0.08203 0.993491,-0.264323 0.437501,-0.218751 0.674481,-0.583335 0.246094,-0.373698 0.282552,-0.920574 h 2.97136 v 11.238301 h 2.798182 z"
       id="path8339"
       style="fill:#ffffff;fill-opacity:1;stroke:none;stroke-opacity:0.99005" />
    <path
       d="m 70.805312,79.961397 q 0,1.759118 -0.282553,3.080735 -0.282552,1.321617 -0.902345,2.205733 -0.619793,0.884116 -1.613284,1.339846 -0.993492,0.446616 -2.433598,0.446616 -1.430992,0 -2.424484,-0.446616 -0.993491,-0.45573 -1.622399,-1.358075 -0.619792,-0.893231 -0.902345,-2.196619 -0.282553,-1.312502 -0.282553,-3.062505 0,-1.804691 0.273438,-3.080735 0.282553,-1.276044 0.92969,-2.196618 0.638022,-0.902346 1.640628,-1.339847 1.002606,-0.446615 2.388025,-0.446615 1.46745,0 2.442712,0.464845 0.984377,0.45573 1.613285,1.36719 0.619792,0.89323 0.89323,2.205733 0.282553,1.312502 0.282553,3.016932 z m -3.417975,0 q 0,-2.515629 -0.419272,-3.52735 -0.410157,-1.020835 -1.394533,-1.020835 -0.975262,0 -1.394534,1.020835 -0.419272,1.011721 -0.419272,3.54558 0,2.479171 0.419272,3.518235 0.419272,1.02995 1.394534,1.02995 0.975262,0 1.394533,-1.02995 0.419272,-1.039064 0.419272,-3.536465 z"
       id="path8336"
       style="fill:#ffffff;fill-opacity:1;stroke:none;stroke-opacity:0.99005" />
    <path
       d="m 82.690749,79.961397 q 0,1.759118 -0.282553,3.080735 -0.282552,1.321617 -0.902345,2.205733 -0.619793,0.884116 -1.613284,1.339846 -0.993492,0.446616 -2.433598,0.446616 -1.430992,0 -2.424484,-0.446616 -0.993491,-0.45573 -1.622399,-1.358075 -0.619792,-0.893231 -0.902345,-2.196619 -0.282553,-1.312502 -0.282553,-3.062505 0,-1.804691 0.273438,-3.080735 0.282553,-1.276044 0.92969,-2.196618 0.638022,-0.902346 1.640628,-1.339847 1.002606,-0.446615 2.388025,-0.446615 1.46745,0 2.442712,0.464845 0.984377,0.45573 1.613285,1.36719 0.619792,0.89323 0.89323,2.205733 0.282553,1.312502 0.282553,3.016932 z m -3.417975,0 q 0,-2.515629 -0.419272,-3.52735 -0.410157,-1.020835 -1.394533,-1.020835 -0.975262,0 -1.394534,1.020835 -0.419272,1.011721 -0.419272,3.54558 0,2.479171 0.419272,3.518235 0.419272,1.02995 1.394534,1.02995 0.975262,0 1.394533,-1.02995 0.419272,-1.039064 0.419272,-3.536465 z"
       id="path8333"
       style="fill:#ffffff;fill-opacity:1;stroke:none;stroke-opacity:0.99005" />
    <path
       d="m 94.57619,79.961397 q 0,1.759118 -0.282553,3.080735 -0.282552,1.321617 -0.902345,2.205733 -0.619793,0.884116 -1.613284,1.339846 -0.993492,0.446616 -2.433598,0.446616 -1.430993,0 -2.424484,-0.446616 -0.993491,-0.45573 -1.622399,-1.358075 -0.619793,-0.893231 -0.902345,-2.196619 -0.282553,-1.312502 -0.282553,-3.062505 0,-1.804691 0.273438,-3.080735 0.282553,-1.276044 0.929689,-2.196618 0.638022,-0.902346 1.640628,-1.339847 1.002606,-0.446615 2.388026,-0.446615 1.46745,0 2.442712,0.464845 0.984377,0.45573 1.613284,1.36719 0.619793,0.89323 0.893231,2.205733 0.282553,1.312502 0.282553,3.016932 z m -3.417975,0 q 0,-2.515629 -0.419272,-3.52735 -0.410157,-1.020835 -1.394533,-1.020835 -0.975263,0 -1.394534,1.020835 -0.419272,1.011721 -0.419272,3.54558 0,2.479171 0.419272,3.518235 0.419271,1.02995 1.394534,1.02995 0.975262,0 1.394533,-1.02995 0.419272,-1.039064 0.419272,-3.536465 z"
       id="path8330"
       style="fill:#ffffff;fill-opacity:1;stroke:none;stroke-opacity:0.99005" />
    <path
       d="m 106.03324,86.751774 h -8.968766 v -2.369796 h 2.861985 v -7.17319 H 97.064474 V 74.99394 q 0.628908,0 1.248701,-0.08203 0.619792,-0.08203 0.993491,-0.264323 0.437501,-0.218751 0.67448,-0.583335 0.246094,-0.373698 0.282554,-0.920574 h 2.97136 v 11.238301 h 2.79818 z"
       id="path8327"
       style="fill:#ffffff;fill-opacity:1;stroke:none;stroke-opacity:0.99005" />
    <path
       d="m 35.148998,95.828093 q 0,1.759118 -0.282553,3.080735 -0.282552,1.321622 -0.902345,2.205732 -0.619793,0.88412 -1.613284,1.33985 -0.993491,0.44661 -2.433598,0.44661 -1.430992,0 -2.424484,-0.44661 -0.993491,-0.45573 -1.622398,-1.35808 -0.619793,-0.89323 -0.902346,-2.196617 -0.282552,-1.312502 -0.282552,-3.062505 0,-1.804691 0.273438,-3.080735 0.282552,-1.276044 0.929689,-2.196619 0.638022,-0.902345 1.640628,-1.339846 1.002606,-0.446615 2.388025,-0.446615 1.46745,0 2.442713,0.464844 0.984376,0.45573 1.613284,1.36719 0.619793,0.893231 0.89323,2.205734 0.282553,1.312502 0.282553,3.016932 z m -3.417975,0 q 0,-2.515629 -0.419271,-3.52735 -0.410157,-1.020835 -1.394534,-1.020835 -0.975262,0 -1.394534,1.020835 -0.419272,1.011721 -0.419272,3.545579 0,2.479171 0.419272,3.518236 0.419272,1.029952 1.394534,1.029952 0.975262,0 1.394534,-1.029952 0.419271,-1.039065 0.419271,-3.536465 z"
       id="path8315"
       style="fill:#ffffff;fill-opacity:1;stroke:none;stroke-opacity:0.99005" />
    <path
       d="m 46.60605,102.61847 h -8.968766 v -2.3698 h 2.861984 v -7.173186 h -2.861984 v -2.214848 q 0.628907,0 1.2487,-0.08203 0.619793,-0.08203 0.993491,-0.264324 0.437501,-0.21875 0.674481,-0.583334 0.246094,-0.373699 0.282552,-0.920575 h 2.97136 v 11.238307 h 2.798182 z"
       id="path8312"
       style="fill:#ffffff;fill-opacity:1;stroke:none;stroke-opacity:0.99005" />
    <path
       d="m 58.491489,102.61847 h -8.968766 v -2.3698 h 2.861984 v -7.173186 h -2.861984 v -2.214848 q 0.628907,0 1.2487,-0.08203 0.619793,-0.08203 0.993491,-0.264324 0.437501,-0.21875 0.674481,-0.583334 0.246094,-0.373699 0.282552,-0.920575 h 2.97136 v 11.238307 h 2.798182 z"
       id="path8309"
       style="fill:#ffffff;fill-opacity:1;stroke:none;stroke-opacity:0.99005" />
    <path
       d="M 70.376926,102.61847 H 61.40816 v -2.3698 h 2.861984 V 93.075484 H 61.40816 v -2.214848 q 0.628907,0 1.2487,-0.08203 0.619793,-0.08203 0.993491,-0.264324 0.437501,-0.21875 0.674481,-0.583334 0.246094,-0.373699 0.282552,-0.920575 h 2.97136 v 11.238307 h 2.798182 z"
       id="path8306"
       style="fill:#ffffff;fill-opacity:1;stroke:none;stroke-opacity:0.99005" />
    <path
       d="m 82.690749,95.828093 q 0,1.759118 -0.282553,3.080735 -0.282552,1.321622 -0.902345,2.205732 -0.619793,0.88412 -1.613284,1.33985 -0.993492,0.44661 -2.433598,0.44661 -1.430992,0 -2.424484,-0.44661 -0.993491,-0.45573 -1.622399,-1.35808 -0.619792,-0.89323 -0.902345,-2.196617 -0.282553,-1.312502 -0.282553,-3.062505 0,-1.804691 0.273438,-3.080735 0.282553,-1.276044 0.92969,-2.196619 0.638022,-0.902345 1.640628,-1.339846 1.002606,-0.446615 2.388025,-0.446615 1.46745,0 2.442712,0.464844 0.984377,0.45573 1.613285,1.36719 0.619792,0.893231 0.89323,2.205734 0.282553,1.312502 0.282553,3.016932 z m -3.417975,0 q 0,-2.515629 -0.419272,-3.52735 -0.410157,-1.020835 -1.394533,-1.020835 -0.975262,0 -1.394534,1.020835 -0.419272,1.011721 -0.419272,3.545579 0,2.479171 0.419272,3.518236 0.419272,1.029952 1.394534,1.029952 0.975262,0 1.394533,-1.029952 0.419272,-1.039065 0.419272,-3.536465 z"
       id="path8303"
       style="fill:#ffffff;fill-opacity:1;stroke:none;stroke-opacity:0.99005" />
    <path
       d="m 94.147804,102.61847 h -8.968767 v -2.3698 h 2.861985 v -7.173186 h -2.861985 v -2.214848 q 0.628908,0 1.248701,-0.08203 0.619792,-0.08203 0.993491,-0.264324 0.437501,-0.21875 0.67448,-0.583334 0.246095,-0.373699 0.282553,-0.920575 h 2.971359 v 11.238307 h 2.798183 z"
       id="path8300"
       style="fill:#ffffff;fill-opacity:1;stroke:none;stroke-opacity:0.99005" />
    <path
       d="m 106.46163,95.828093 q 0,1.759118 -0.28256,3.080735 -0.28255,1.321622 -0.90234,2.205732 -0.61979,0.88412 -1.61329,1.33985 -0.99349,0.44661 -2.43359,0.44661 -1.430996,0 -2.424487,-0.44661 -0.993491,-0.45573 -1.622399,-1.35808 -0.619793,-0.89323 -0.902345,-2.196617 -0.282553,-1.312502 -0.282553,-3.062505 0,-1.804691 0.273438,-3.080735 0.282553,-1.276044 0.929689,-2.196619 0.638022,-0.902345 1.640628,-1.339846 1.002606,-0.446615 2.388029,-0.446615 1.46745,0 2.44271,0.464844 0.98438,0.45573 1.61328,1.36719 0.6198,0.893231 0.89323,2.205734 0.28256,1.312502 0.28256,3.016932 z m -3.41798,0 q 0,-2.515629 -0.41927,-3.52735 -0.41016,-1.020835 -1.39453,-1.020835 -0.97527,0 -1.394537,1.020835 -0.419272,1.011721 -0.419272,3.545579 0,2.479171 0.419272,3.518236 0.419267,1.029952 1.394537,1.029952 0.97526,0 1.39453,-1.029952 0.41927,-1.039065 0.41927,-3.536465 z"
       id="path8297"
       style="fill:#ffffff;fill-opacity:1;stroke:none;stroke-opacity:0.99005" />
    <path
       d="m 117.91868,102.61847 h -8.96877 v -2.3698 h 2.86199 v -7.173186 h -2.86199 v -2.214848 q 0.62891,0 1.2487,-0.08203 0.61979,-0.08203 0.99349,-0.264324 0.4375,-0.21875 0.67448,-0.583334 0.2461,-0.373699 0.28256,-0.920575 h 2.97136 v 11.238307 h 2.79818 z"
       id="path8294"
       style="fill:#ffffff;fill-opacity:1;stroke:none;stroke-opacity:0.99005" />
    <path
       d="m 35.148998,111.69479 q 0,1.75912 -0.282553,3.08073 -0.282552,1.32162 -0.902345,2.20574 -0.619793,0.88411 -1.613284,1.33984 -0.993491,0.44662 -2.433598,0.44662 -1.430992,0 -2.424484,-0.44662 -0.993491,-0.45573 -1.622398,-1.35807 -0.619793,-0.89323 -0.902346,-2.19662 -0.282552,-1.3125 -0.282552,-3.06251 0,-1.80469 0.273438,-3.08073 0.282552,-1.27605 0.929689,-2.19662 0.638022,-0.90235 1.640628,-1.33985 1.002606,-0.44661 2.388025,-0.44661 1.46745,0 2.442713,0.46484 0.984376,0.45573 1.613284,1.36719 0.619793,0.89323 0.89323,2.20574 0.282553,1.3125 0.282553,3.01693 z m -3.417975,0 q 0,-2.51563 -0.419271,-3.52735 -0.410157,-1.02084 -1.394534,-1.02084 -0.975262,0 -1.394534,1.02084 -0.419272,1.01172 -0.419272,3.54558 0,2.47917 0.419272,3.51823 0.419272,1.02995 1.394534,1.02995 0.975262,0 1.394534,-1.02995 0.419271,-1.03906 0.419271,-3.53646 z"
       id="path8285"
       style="fill:#ffffff;fill-opacity:1;stroke:none;stroke-opacity:0.99005" />
    <path
       d="m 47.034436,111.69479 q 0,1.75912 -0.282553,3.08073 -0.282552,1.32162 -0.902345,2.20574 -0.619793,0.88411 -1.613284,1.33984 -0.993491,0.44662 -2.433598,0.44662 -1.430992,0 -2.424484,-0.44662 -0.993491,-0.45573 -1.622399,-1.35807 -0.619792,-0.89323 -0.902345,-2.19662 -0.282553,-1.3125 -0.282553,-3.06251 0,-1.80469 0.273438,-3.08073 0.282553,-1.27605 0.92969,-2.19662 0.638022,-0.90235 1.640628,-1.33985 1.002606,-0.44661 2.388025,-0.44661 1.46745,0 2.442713,0.46484 0.984376,0.45573 1.613284,1.36719 0.619792,0.89323 0.89323,2.20574 0.282553,1.3125 0.282553,3.01693 z m -3.417975,0 q 0,-2.51563 -0.419271,-3.52735 -0.410157,-1.02084 -1.394534,-1.02084 -0.975262,0 -1.394534,1.02084 -0.419272,1.01172 -0.419272,3.54558 0,2.47917 0.419272,3.51823 0.419272,1.02995 1.394534,1.02995 0.975262,0 1.394534,-1.02995 0.419271,-1.03906 0.419271,-3.53646 z"
       id="path8282"
       style="fill:#ffffff;fill-opacity:1;stroke:none;stroke-opacity:0.99005" />
    <path
       d="m 58.491489,118.48517 h -8.968766 v -2.3698 h 2.861984 v -7.17319 h -2.861984 v -2.21485 q 0.628907,0 1.2487,-0.082 0.619793,-0.082 0.993491,-0.26432 0.437501,-0.21875 0.674481,-0.58334 0.246094,-0.3737 0.282552,-0.92057 h 2.97136 v 11.2383 h 2.798182 z"
       id="path8279"
       style="fill:#ffffff;fill-opacity:1;stroke:none;stroke-opacity:0.99005" />
    <path
       d="m 70.805312,111.69479 q 0,1.75912 -0.282553,3.08073 -0.282552,1.32162 -0.902345,2.20574 -0.619793,0.88411 -1.613284,1.33984 -0.993492,0.44662 -2.433598,0.44662 -1.430992,0 -2.424484,-0.44662 -0.993491,-0.45573 -1.622399,-1.35807 -0.619792,-0.89323 -0.902345,-2.19662 -0.282553,-1.3125 -0.282553,-3.06251 0,-1.80469 0.273438,-3.08073 0.282553,-1.27605 0.92969,-2.19662 0.638022,-0.90235 1.640628,-1.33985 1.002606,-0.44661 2.388025,-0.44661 1.46745,0 2.442712,0.46484 0.984377,0.45573 1.613285,1.36719 0.619792,0.89323 0.89323,2.20574 0.282553,1.3125 0.282553,3.01693 z m -3.417975,0 q 0,-2.51563 -0.419272,-3.52735 -0.410157,-1.02084 -1.394533,-1.02084 -0.975262,0 -1.394534,1.02084 -0.419272,1.01172 -0.419272,3.54558 0,2.47917 0.419272,3.51823 0.419272,1.02995 1.394534,1.02995 0.975262,0 1.394533,-1.02995 0.419272,-1.03906 0.419272,-3.53646 z"
       id="path8276"
       style="fill:#ffffff;fill-opacity:1;stroke:none;stroke-opacity:0.99005" />
    <path
       d="m 82.262363,118.48517 h -8.968766 v -2.3698 h 2.861984 v -7.17319 h -2.861984 v -2.21485 q 0.628907,0 1.2487,-0.082 0.619793,-0.082 0.993491,-0.26432 0.437501,-0.21875 0.674481,-0.58334 0.246094,-0.3737 0.282552,-0.92057 h 2.97136 v 11.2383 h 2.798182 z"
       id="path8273"
       style="fill:#ffffff;fill-opacity:1;stroke:none;stroke-opacity:0.99005" />
    <path
       d="m 94.147804,118.48517 h -8.968767 v -2.3698 h 2.861985 v -7.17319 h -2.861985 v -2.21485 q 0.628908,0 1.248701,-0.082 0.619792,-0.082 0.993491,-0.26432 0.437501,-0.21875 0.67448,-0.58334 0.246095,-0.3737 0.282553,-0.92057 h 2.971359 v 11.2383 h 2.798183 z"
       id="path8270"
       style="fill:#ffffff;fill-opacity:1;stroke:none;stroke-opacity:0.99005" />
    <path
       d="m 58.919875,127.56148 q 0,1.75912 -0.282553,3.08074 -0.282552,1.32162 -0.902345,2.20573 -0.619793,0.88412 -1.613284,1.33985 -0.993492,0.44661 -2.433598,0.44661 -1.430992,0 -2.424484,-0.44661 -0.993491,-0.45573 -1.622399,-1.35808 -0.619792,-0.89323 -0.902345,-2.19662 -0.282553,-1.3125 -0.282553,-3.0625 0,-1.80469 0.273438,-3.08074 0.282553,-1.27604 0.92969,-2.19661 0.638022,-0.90235 1.640628,-1.33985 1.002606,-0.44662 2.388025,-0.44662 1.46745,0 2.442712,0.46485 0.984377,0.45573 1.613285,1.36719 0.619792,0.89323 0.89323,2.20573 0.282553,1.3125 0.282553,3.01693 z m -3.417975,0 q 0,-2.51562 -0.419272,-3.52735 -0.410157,-1.02083 -1.394533,-1.02083 -0.975262,0 -1.394534,1.02083 -0.419272,1.01173 -0.419272,3.54558 0,2.47917 0.419272,3.51824 0.419272,1.02995 1.394534,1.02995 0.975262,0 1.394533,-1.02995 0.419272,-1.03907 0.419272,-3.53647 z"
       id="path8249"
       style="fill:#ffffff;fill-opacity:1;stroke:none;stroke-opacity:0.99005" />
    <path
       d="m 70.805312,127.56148 q 0,1.75912 -0.282553,3.08074 -0.282552,1.32162 -0.902345,2.20573 -0.619793,0.88412 -1.613284,1.33985 -0.993492,0.44661 -2.433598,0.44661 -1.430992,0 -2.424484,-0.44661 -0.993491,-0.45573 -1.622399,-1.35808 -0.619792,-0.89323 -0.902345,-2.19662 -0.282553,-1.3125 -0.282553,-3.0625 0,-1.80469 0.273438,-3.08074 0.282553,-1.27604 0.92969,-2.19661 0.638022,-0.90235 1.640628,-1.33985 1.002606,-0.44662 2.388025,-0.44662 1.46745,0 2.442712,0.46485 0.984377,0.45573 1.613285,1.36719 0.619792,0.89323 0.89323,2.20573 0.282553,1.3125 0.282553,3.01693 z m -3.417975,0 q 0,-2.51562 -0.419272,-3.52735 -0.410157,-1.02083 -1.394533,-1.02083 -0.975262,0 -1.394534,1.02083 -0.419272,1.01173 -0.419272,3.54558 0,2.47917 0.419272,3.51824 0.419272,1.02995 1.394534,1.02995 0.975262,0 1.394533,-1.02995 0.419272,-1.03907 0.419272,-3.53647 z"
       id="path8246"
       style="fill:#ffffff;fill-opacity:1;stroke:none;stroke-opacity:0.99005" />
    <path
       id="polyline29-34-3-8-2"
       clip-path="url(#cpMHwxMjQuNDQxfDE0My45OTd8MC4xNDMxMzc=)"
       style="fill:#ffffff;fill-opacity:1;fill-rule:nonzero;stroke:none;stroke-width:3.99994;stroke-linecap:round;stroke-linejoin:round;stroke-miterlimit:10;stroke-opacity:0.99005"
       d="m 46.843602,61.566 a 56.63063,56.632385 0 0 0 -3.245993,1.601563 c 0.01086,0.291628 0.01953,0.595196 0.01953,0.925781 0,1.664932 -0.140405,2.844401 -0.419909,3.537109 -0.279506,0.686633 -0.744335,1.029297 -1.394489,1.029297 -0.650154,0 -1.114981,-0.342664 -1.394488,-1.029297 C 40.21569,67.153221 40.09121,66.442274 40.031311,65.50936 A 56.63063,56.632385 0 0 0 36.965,67.607016 c 0.187878,0.677916 0.449906,1.26428 0.79099,1.755859 0.41926,0.601564 0.960692,1.053602 1.622997,1.357422 0.662308,0.297743 1.46979,0.447266 2.423753,0.447266 0.960041,0 1.771212,-0.149523 2.433519,-0.447266 0.662306,-0.30382 1.200049,-0.750433 1.613231,-1.339844 0.413182,-0.58941 0.713954,-1.324001 0.902316,-2.205078 0.188363,-0.881077 0.283194,-1.909288 0.283194,-3.082031 0,-0.930849 -0.06499,-1.771842 -0.1914,-2.527344 z" />
    <path
       id="polyline29-34-3-8-9"
       clip-path="url(#cpMHwxMjQuNDQxfDE0My45OTd8MC4xNDMxMzc=)"
       style="fill:#ffffff;fill-opacity:1;fill-rule:nonzero;stroke:none;stroke-width:4;stroke-linecap:round;stroke-linejoin:round;stroke-miterlimit:10;stroke-opacity:0.99005"
       d="m 56.607391,57.766 a 56.632385,56.632385 0 0 0 -7.763672,2.814453 c -0.04137,0.144305 -0.07966,0.291503 -0.113281,0.44336 -0.182292,0.850695 -0.273438,1.876951 -0.273438,3.080078 0,1.166667 0.09288,2.187499 0.28125,3.0625 0.188369,0.868923 0.48915,1.601779 0.902344,2.197265 0.419272,0.601564 0.96072,1.053602 1.623047,1.357422 0.662327,0.297743 1.469834,0.447266 2.423828,0.447266 0.96007,0 1.771266,-0.149523 2.433594,-0.447266 0.662326,-0.30382 1.200086,-0.750433 1.613281,-1.339844 0.413195,-0.58941 0.713976,-1.324001 0.902344,-2.205078 0.188368,-0.881077 0.283203,-1.909288 0.283203,-3.082031 0,-1.136286 -0.09483,-2.140625 -0.283203,-3.015625 -0.182292,-0.875 -0.479384,-1.611545 -0.892578,-2.207031 -0.313049,-0.453694 -0.691557,-0.82115 -1.136719,-1.105469 z m -2.919922,1.78125 c 0.65625,0 1.121094,0.338975 1.394531,1.019531 0.279515,0.67448 0.419922,1.850259 0.419922,3.527344 0,1.664932 -0.140407,2.844401 -0.419922,3.537109 -0.279513,0.686633 -0.744357,1.029297 -1.394531,1.029297 -0.650174,0 -1.115017,-0.342664 -1.394531,-1.029297 -0.279515,-0.692708 -0.417969,-1.864799 -0.417969,-3.517578 0,-1.689237 0.138454,-2.872395 0.417969,-3.546875 0.279514,-0.680556 0.744357,-1.019531 1.394531,-1.019531 z" />
    <path
       id="polyline29-34-3-8-1"
       clip-path="url(#cpMHwxMjQuNDQxfDE0My45OTd8MC4xNDMxMzc=)"
       style="fill:#ffffff;fill-opacity:1;fill-rule:nonzero;stroke:none;stroke-width:4;stroke-linecap:round;stroke-linejoin:round;stroke-miterlimit:10;stroke-opacity:0.99005"
       d="M 34.721187,69.576 A 56.632385,56.632385 0 0 0 33.229,70.884594 h 1.492187 z" />
    <path
       id="polyline29-34-3-8-20"
       clip-path="url(#cpMHwxMjQuNDQxfDE0My45OTd8MC4xNDMxMzc=)"
       style="fill:#ffffff;fill-opacity:1;fill-rule:nonzero;stroke:none;stroke-width:4;stroke-linecap:round;stroke-linejoin:round;stroke-miterlimit:10;stroke-opacity:0.99005"
       d="M 30.878953,73.145 A 56.632385,56.632385 0 0 0 27.3145,77.209453 h 1.298828 v 7.173828 H 25.752 v 2.369141 h 8.96875 V 84.383281 H 31.921922 V 73.145 Z" />
    <path
       id="polyline29-34-3-8-3"
       clip-path="url(#cpMHwxMjQuNDQxfDE0My45OTd8MC4xNDMxMzc=)"
       style="fill:#ffffff;fill-opacity:1;fill-rule:nonzero;stroke:none;stroke-width:4;stroke-linecap:round;stroke-linejoin:round;stroke-miterlimit:10;stroke-opacity:0.99005"
       d="M 22.450969,84.383 A 56.632385,56.632385 0 0 0 21.283,86.752141 h 1.552735 V 84.383 Z" />
    <path
       id="polyline29-34-3-8-8"
       clip-path="url(#cpMHwxMjQuNDQxfDE0My45OTd8MC4xNDMxMzc=)"
       style="fill:#ffffff;fill-opacity:1;fill-rule:nonzero;stroke:none;stroke-width:4;stroke-linecap:round;stroke-linejoin:round;stroke-miterlimit:10;stroke-opacity:0.99005"
       d="m 20.036921,89.277 a 56.632385,56.632385 0 0 0 -3.308593,9.638672 v 1.332038 H 16.462703 A 56.632385,56.632385 0 0 0 15.992,102.6188 h 6.84375 v -2.37109 h -2.798829 z" />
    <path
       id="polyline29-34-3-8-31"
       clip-path="url(#cpMHwxMjQuNDQxfDE0My45OTd8MC4xNDMxMzc=)"
       style="fill:#ffffff;fill-opacity:1;fill-rule:nonzero;stroke:none;stroke-width:4;stroke-linecap:round;stroke-linejoin:round;stroke-miterlimit:10;stroke-opacity:0.99005"
       d="m 18.031375,104.64104 c -0.923612,1e-5 -1.718315,0.14758 -2.386719,0.44532 -0.04311,0.0188 -0.08485,0.0404 -0.126953,0.0605 a 56.632385,56.632385 0 0 0 -0.470703,7.18164 56.632385,56.632385 0 0 0 0.140625,1.95118 l 1.400391,0.8125 c -0.246073,-0.70555 -0.369141,-1.82815 -0.369141,-3.37891 0,-1.68924 0.138454,-2.87044 0.417969,-3.54492 0.279514,-0.68056 0.744357,-1.02149 1.394531,-1.02149 0.656251,0 1.121094,0.34093 1.394531,1.02149 0.279514,0.67448 0.419922,1.85026 0.419922,3.52734 0,1.66493 -0.140408,2.84245 -0.419922,3.53516 -0.208655,0.51256 -0.520342,0.8349 -0.935547,0.96484 l 2.798828,1.62305 c 0.30005,-0.23675 0.563353,-0.51593 0.789063,-0.83789 0.413195,-0.58941 0.713975,-1.324 0.902344,-2.20508 0.188368,-0.88107 0.283203,-1.90733 0.283203,-3.08008 0,-1.13628 -0.09483,-2.14258 -0.283203,-3.01758 -0.182292,-0.875 -0.479383,-1.60959 -0.892578,-2.20507 -0.419272,-0.60764 -0.957032,-1.06337 -1.613282,-1.36719 -0.650174,-0.30989 -1.46506,-0.46485 -2.443359,-0.46485 z" />
    <path
       id="polyline29-34-3-8-4"
       clip-path="url(#cpMHwxMjQuNDQxfDE0My45OTd8MC4xNDMxMzc=)"
       style="fill:#ffffff;fill-opacity:1;fill-rule:nonzero;stroke:none;stroke-width:4;stroke-linecap:round;stroke-linejoin:round;stroke-miterlimit:10;stroke-opacity:0.99005"
       d="m 28.95125,120.744 c -0.0243,0.36459 -0.119141,0.67079 -0.283203,0.91992 -0.06906,0.10624 -0.153448,0.2014 -0.248047,0.28906 l 3.501953,2.0293 V 120.744 Z" />
    <path
       id="polyline29-34-3-8-94"
       clip-path="url(#cpMHwxMjQuNDQxfDE0My45OTd8MC4xNDMxMzc=)"
       style="fill:#ffffff;fill-opacity:1;fill-rule:nonzero;stroke:none;stroke-width:4;stroke-linecap:round;stroke-linejoin:round;stroke-miterlimit:10;stroke-opacity:0.99005"
       d="m 41.802843,120.506 c -0.923611,0 -1.720268,0.14952 -2.388672,0.44726 -0.668403,0.29167 -1.215277,0.73828 -1.640624,1.33985 -0.431425,0.61371 -0.74132,1.34657 -0.929688,2.19726 -0.13607,0.635 -0.221357,1.36787 -0.255859,2.19922 l 3.425781,1.98633 c -0.01584,-0.33902 -0.02539,-0.70229 -0.02539,-1.0957 0,-1.68923 0.140408,-2.87239 0.419922,-3.54688 0.279515,-0.68055 0.744357,-1.01953 1.394531,-1.01953 0.656251,0 1.121094,0.33898 1.394532,1.01953 0.279513,0.67449 0.419922,1.85027 0.419922,3.52735 0,1.32689 -0.092,2.33944 -0.269532,3.04883 l 2.84961,1.65234 c 0.238429,-0.47044 0.424179,-1.0087 0.554687,-1.61914 0.188369,-0.88108 0.283203,-1.90929 0.283203,-3.08203 0,-1.13629 -0.09483,-2.14063 -0.283203,-3.01563 -0.182292,-0.875 -0.479384,-1.61154 -0.892578,-2.20703 -0.419272,-0.60764 -0.957031,-1.06337 -1.613281,-1.36719 -0.650175,-0.3099 -1.465061,-0.46484 -2.443361,-0.46484 z" />
    <path
       id="polyline29-34-3-8-0"
       clip-path="url(#cpMHwxMjQuNDQxfDE0My45OTd8MC4xNDMxMzc=)"
       style="fill:#ffffff;fill-opacity:1;fill-rule:nonzero;stroke:none;stroke-width:4;stroke-linecap:round;stroke-linejoin:round;stroke-miterlimit:10;stroke-opacity:0.99005"
       d="m 53.687859,136.373 c -0.129866,0 -0.256039,0.004 -0.380859,0.01 l 5,2.90039 c -0.155014,-0.39883 -0.34133,-0.75937 -0.5625,-1.07812 -0.419272,-0.60764 -0.957031,-1.06337 -1.613282,-1.36719 -0.650174,-0.30989 -1.46506,-0.46484 -2.443359,-0.46484 z" />
    <path
       id="polyline29-34-3-8-7"
       clip-path="url(#cpMHwxMjQuNDQxfDE0My45OTd8MC4xNDMxMzc=)"
       style="fill:#ffffff;fill-opacity:1;fill-rule:nonzero;stroke:none;stroke-width:4;stroke-linecap:round;stroke-linejoin:round;stroke-miterlimit:10;stroke-opacity:0.99005"
       d="m 64.607219,136.61103 c -0.0243,0.36458 -0.119141,0.67079 -0.283203,0.91992 -0.157987,0.24306 -0.382161,0.43815 -0.673828,0.58398 -0.249132,0.12155 -0.580946,0.20901 -0.994141,0.26368 -0.413195,0.0547 -0.828776,0.082 -1.248047,0.082 v 2.21484 h 2.095703 l 4.074219,-2.36328 V 136.611 Z" />
    <path
       id="polyline29-34-3-8-42"
       clip-path="url(#cpMHwxMjQuNDQxfDE0My45OTd8MC4xNDMxMzc=)"
       style="fill:#ffffff;fill-opacity:1;fill-rule:nonzero;stroke:none;stroke-width:4;stroke-linecap:round;stroke-linejoin:round;stroke-miterlimit:10;stroke-opacity:0.99005"
       d="m 76.492219,120.74403 c -0.02431,0.36459 -0.117188,0.67079 -0.28125,0.91992 -0.157987,0.24306 -0.384115,0.43815 -0.675782,0.58399 -0.249132,0.12155 -0.578992,0.209 -0.992187,0.26367 -0.413195,0.0547 -0.830729,0.082 -1.25,0.082 v 2.21484 h 2.863281 v 7.17383 H 73.293 v 2.36914 h 1.117187 l 5.054688,-2.93164 V 120.744 Z" />
    <path
       id="polyline29-34-3-8-5"
       clip-path="url(#cpMHwxMjQuNDQxfDE0My45OTd8MC4xNDMxMzc=)"
       style="fill:#ffffff;fill-opacity:1;fill-rule:nonzero;stroke:none;stroke-width:4;stroke-linecap:round;stroke-linejoin:round;stroke-miterlimit:10;stroke-opacity:0.99005"
       d="m 89.343469,120.506 c -0.923612,0 -1.718315,0.14952 -2.386719,0.44726 -0.668403,0.29167 -1.215277,0.73828 -1.640625,1.33985 -0.431423,0.61371 -0.741319,1.34657 -0.929687,2.19726 -0.182292,0.8507 -0.273438,1.87696 -0.273438,3.08008 0,0.39524 0.01158,0.77301 0.0332,1.13477 l 3.398438,-1.9707 c 0.04081,-1.24122 0.1744,-2.14642 0.404297,-2.70118 0.279513,-0.68055 0.744356,-1.01953 1.394531,-1.01953 0.65625,0 1.121094,0.33898 1.394531,1.01953 0.08191,0.19764 0.15108,0.44479 0.208985,0.72852 l 2.878906,-1.66992 c -0.125058,-0.2714 -0.266345,-0.52413 -0.425781,-0.75391 -0.419271,-0.60764 -0.957031,-1.06337 -1.613282,-1.36719 -0.650174,-0.3099 -1.46506,-0.46484 -2.443359,-0.46484 z" />
    <path
       id="polyline29-34-3-8-38"
       clip-path="url(#cpMHwxMjQuNDQxfDE0My45OTd8MC4xNDMxMzc=)"
       style="fill:#ffffff;fill-opacity:1;fill-rule:nonzero;stroke:none;stroke-width:4;stroke-linecap:round;stroke-linejoin:round;stroke-miterlimit:10;stroke-opacity:0.99005"
       d="m 101.23042,104.64104 c -0.92362,1e-5 -1.720267,0.14758 -2.38867,0.44532 -0.668403,0.29166 -1.215278,0.73828 -1.640625,1.33984 -0.431424,0.61371 -0.741319,1.34657 -0.929688,2.19727 -0.182291,0.85069 -0.273437,1.87695 -0.273437,3.08007 0,1.16668 0.09484,2.18751 0.283203,3.0625 0.188368,0.86893 0.489149,1.60178 0.902344,2.19727 0.419271,0.60156 0.958767,1.0536 1.621094,1.35742 0.662326,0.29775 1.471779,0.44727 2.425779,0.44727 0.0193,0 0.0374,-0.002 0.0566,-0.002 l 4.43359,-2.57031 c 0.19243,-0.42186 0.3466,-0.89422 0.45899,-1.41992 0.18837,-0.88107 0.28125,-1.90733 0.28125,-3.08008 0,-1.13628 -0.0929,-2.14258 -0.28125,-3.01758 -0.18229,-0.875 -0.48133,-1.60959 -0.89453,-2.20507 -0.41927,-0.60764 -0.95703,-1.06337 -1.61328,-1.36719 -0.65018,-0.30989 -1.46311,-0.46485 -2.44141,-0.46485 z m 0,2.50586 c 0.65624,0 1.12109,0.34093 1.39453,1.02149 0.27951,0.67448 0.41797,1.85026 0.41797,3.52734 0,1.66493 -0.13846,2.84245 -0.41797,3.53516 -0.27951,0.68663 -0.74436,1.03125 -1.39453,1.03125 -0.65018,0 -1.11502,-0.34462 -1.394529,-1.03125 -0.279515,-0.69271 -0.419922,-1.8648 -0.419922,-3.51758 0,-1.68924 0.140407,-2.87044 0.419922,-3.54492 0.279509,-0.68056 0.744349,-1.02149 1.394529,-1.02149 z" />
    <path
       id="polyline29-34-3-8-06"
       clip-path="url(#cpMHwxMjQuNDQxfDE0My45OTd8MC4xNDMxMzc=)"
       style="fill:#ffffff;fill-opacity:1;fill-rule:nonzero;stroke:none;stroke-width:4;stroke-linecap:round;stroke-linejoin:round;stroke-miterlimit:10;stroke-opacity:0.99005"
       d="m 112.14822,104.87703 c -0.0243,0.36458 -0.11719,0.67079 -0.28125,0.91993 -0.15799,0.24305 -0.38412,0.43815 -0.67578,0.58398 -0.24914,0.12155 -0.579,0.209 -0.99219,0.26367 -0.41319,0.0547 -0.83073,0.082 -1.25,0.082 v 2.21485 h 2.86328 v 3.72265 l 3.30859,-1.91992 V 104.877 Z" />
    <path
       id="polyline29-34-3-8-54"
       clip-path="url(#cpMHwxMjQuNDQxfDE0My45OTd8MC4xNDMxMzc=)"
       style="fill:#ffffff;fill-opacity:1;fill-rule:nonzero;stroke:none;stroke-width:4;stroke-linecap:round;stroke-linejoin:round;stroke-miterlimit:10;stroke-opacity:0.99005"
       d="m 121.92586,105.471 c -0.36654,0.25659 -0.68393,0.57437 -0.95312,0.95508 -0.27475,0.39083 -0.50157,0.83143 -0.67774,1.31836 l 1.63086,-0.94531 z" />
    <path
       id="polyline29-34-3-8-80"
       clip-path="url(#cpMHwxMjQuNDQxfDE0My45OTd8MC4xNDMxMzc=)"
       style="fill:#ffffff;fill-opacity:1;fill-rule:nonzero;stroke:none;stroke-width:4;stroke-linecap:round;stroke-linejoin:round;stroke-miterlimit:10;stroke-opacity:0.99005"
       d="m 121.92625,89.604 c -0.36656,0.256597 -0.68392,0.5763 -0.95312,0.957031 -0.43143,0.613716 -0.74132,1.344617 -0.92969,2.195312 -0.18229,0.850696 -0.27344,1.878905 -0.27344,3.082032 0,1.166667 0.0929,2.187499 0.28125,3.062499 0.18837,0.86892 0.48915,1.599826 0.90234,2.195306 0.27236,0.39077 0.59774,0.71925 0.97266,0.98438 z" />
    <path
       id="polyline29-34-3-8-07"
       clip-path="url(#cpMHwxMjQuNDQxfDE0My45OTd8MC4xNDMxMzc=)"
       style="fill:#ffffff;fill-opacity:1;fill-rule:nonzero;stroke:none;stroke-width:4;stroke-linecap:round;stroke-linejoin:round;stroke-miterlimit:10;stroke-opacity:0.99005"
       d="m 120.836,84.439 v 2.3125 h 1.08984 V 86.228063 A 56.632385,56.632385 0 0 0 120.836,84.439 Z" />
    <path
       id="polyline29-34-3-8-32"
       clip-path="url(#cpMHwxMjQuNDQxfDE0My45OTd8MC4xNDMxMzc=)"
       style="fill:#ffffff;fill-opacity:1;fill-rule:nonzero;stroke:none;stroke-width:4;stroke-linecap:round;stroke-linejoin:round;stroke-miterlimit:10;stroke-opacity:0.99005"
       d="m 99.92533,63.334 v 5.181641 H 97.064 v 2.369141 h 8.96875 v -2.369141 h -2.79882 v -3.0625 A 56.632385,56.632385 0 0 0 99.92533,63.334 Z" />
    <path
       id="polyline29-34-3-8-13"
       clip-path="url(#cpMHwxMjQuNDQxfDE0My45OTd8MC4xNDMxMzc=)"
       style="fill:#ffffff;fill-opacity:1;fill-rule:nonzero;stroke:none;stroke-width:4;stroke-linecap:round;stroke-linejoin:round;stroke-miterlimit:10;stroke-opacity:0.99005"
       d="m 86.52511,57.707 c -0.47597,0.280132 -0.87916,0.652672 -1.20898,1.119141 -0.43143,0.613715 -0.74132,1.34657 -0.92969,2.197266 -0.18229,0.850695 -0.27344,1.876951 -0.27344,3.080078 0,1.166667 0.0929,2.187499 0.28125,3.0625 0.18837,0.868923 0.48915,1.601779 0.90235,2.197265 0.41927,0.601564 0.96071,1.053602 1.62304,1.357422 0.66233,0.297743 1.46984,0.447266 2.42383,0.447266 0.96007,0 1.77127,-0.149523 2.43359,-0.447266 0.66233,-0.30382 1.20009,-0.750433 1.61329,-1.339844 0.41319,-0.58941 0.71397,-1.324001 0.90234,-2.205078 0.18837,-0.881077 0.2832,-1.909288 0.2832,-3.082031 0,-1.136286 -0.0948,-2.140625 -0.2832,-3.015625 -0.0541,-0.259932 -0.11883,-0.506922 -0.19336,-0.742187 A 56.632385,56.632385 0 0 0 86.52511,57.707 Z m 2.81836,1.839844 c 0.65625,0 1.12109,0.338975 1.39453,1.019531 0.27952,0.67448 0.41992,1.850259 0.41992,3.527344 0,1.664932 -0.1404,2.844401 -0.41992,3.537109 -0.27951,0.686633 -0.74436,1.029297 -1.39453,1.029297 -0.65017,0 -1.11502,-0.342664 -1.39453,-1.029297 -0.27952,-0.692708 -0.41797,-1.864799 -0.41797,-3.517578 0,-1.689237 0.13845,-2.872395 0.41797,-3.546875 0.27951,-0.680556 0.74436,-1.019531 1.39453,-1.019531 z" />
    <path
       id="polyline29-34-3-8-29"
       clip-path="url(#cpMHwxMjQuNDQxfDE0My45OTd8MC4xNDMxMzc=)"
       style="fill:#ffffff;fill-opacity:1;fill-rule:nonzero;stroke:none;stroke-width:4;stroke-linecap:round;stroke-linejoin:round;stroke-miterlimit:10;stroke-opacity:0.99005"
       d="m 112.14822,73.145002 c -0.0243,0.364584 -0.11719,0.67079 -0.28125,0.919922 -0.15799,0.243056 -0.38412,0.438151 -0.67578,0.583985 -0.24914,0.121528 -0.579,0.208985 -0.99219,0.263671 -0.41319,0.05469 -0.83073,0.08203 -1.25,0.08203 v 2.214843 h 2.86328 v 7.173828 H 108.949 v 2.369141 h 8.96875 v -2.369141 h -2.79688 V 76.21336 A 56.632385,56.632385 0 0 0 112.49001,73.145 Z" />
  </g>
  <polyline
     transform="translate(0,-3.1185063e-5)"
     points="2.285 37.429 2.285 106.799 62.105 141.486 121.926 106.799 121.926 37.429 62.105 2.743 2.285 37.429"
     style="fill:none;fill-opacity:1;fill-rule:nonzero;stroke:#008a00;stroke-width:4;stroke-linecap:round;stroke-linejoin:round;stroke-miterlimit:10;stroke-opacity:0.99005"
     clip-path="url(#cpMHwxMjQuNDQxfDE0My45OTd8MC4xNDMxMzc=)"
     id="polyline29-34-3"
     inkscape:export-xdpi="153.38"
     inkscape:export-ydpi="153.38" />
</svg>
